<mxfile host="app.diagrams.net" modified="2024-05-22T22:19:26.675Z" agent="Mozilla/5.0 (Windows NT 10.0; Win64; x64) AppleWebKit/537.36 (KHTML, like Gecko) Chrome/124.0.0.0 Safari/537.36" etag="Z0Ly1re_fFejki2_86v9" version="24.4.6" type="github">
  <diagram name="Page-1" id="e7e014a7-5840-1c2e-5031-d8a46d1fe8dd">
    <mxGraphModel dx="1059" dy="605" grid="1" gridSize="10" guides="1" tooltips="1" connect="1" arrows="1" fold="1" page="1" pageScale="1" pageWidth="1169" pageHeight="826" background="none" math="0" shadow="0">
      <root>
        <mxCell id="0" />
        <mxCell id="1" parent="0" />
        <mxCell id="urNjJAc5NS-x6S6wwpMr-93" value="" style="html=1;whiteSpace=wrap;" parent="1" vertex="1">
          <mxGeometry x="110" y="280" width="1190" height="790" as="geometry" />
        </mxCell>
        <mxCell id="urNjJAc5NS-x6S6wwpMr-73" value="Paciente" style="shape=umlActor;verticalLabelPosition=bottom;verticalAlign=top;html=1;outlineConnect=0;" parent="1" vertex="1">
          <mxGeometry x="185" y="602" width="30" height="60" as="geometry" />
        </mxCell>
        <mxCell id="urNjJAc5NS-x6S6wwpMr-74" value="" style="endArrow=none;dashed=1;html=1;rounded=0;" parent="1" source="urNjJAc5NS-x6S6wwpMr-77" edge="1">
          <mxGeometry width="50" height="50" relative="1" as="geometry">
            <mxPoint x="200" y="890" as="sourcePoint" />
            <mxPoint x="200" y="690" as="targetPoint" />
          </mxGeometry>
        </mxCell>
        <mxCell id="urNjJAc5NS-x6S6wwpMr-75" value="Verificar CPF" style="ellipse;shape=umlControl;whiteSpace=wrap;html=1;" parent="1" vertex="1">
          <mxGeometry x="340" y="600" width="70" height="80" as="geometry" />
        </mxCell>
        <mxCell id="urNjJAc5NS-x6S6wwpMr-76" value="" style="endArrow=none;dashed=1;html=1;rounded=0;" parent="1" target="urNjJAc5NS-x6S6wwpMr-77" edge="1">
          <mxGeometry width="50" height="50" relative="1" as="geometry">
            <mxPoint x="200" y="890" as="sourcePoint" />
            <mxPoint x="200" y="690" as="targetPoint" />
          </mxGeometry>
        </mxCell>
        <mxCell id="urNjJAc5NS-x6S6wwpMr-77" value="" style="html=1;points=[[0,0,0,0,5],[0,1,0,0,-5],[1,0,0,0,5],[1,1,0,0,-5]];perimeter=orthogonalPerimeter;outlineConnect=0;targetShapes=umlLifeline;portConstraint=eastwest;newEdgeStyle={&quot;curved&quot;:0,&quot;rounded&quot;:0};" parent="1" vertex="1">
          <mxGeometry x="195" y="690" width="10" height="80" as="geometry" />
        </mxCell>
        <mxCell id="urNjJAc5NS-x6S6wwpMr-78" value="" style="endArrow=none;dashed=1;html=1;rounded=0;" parent="1" edge="1">
          <mxGeometry width="50" height="50" relative="1" as="geometry">
            <mxPoint x="374.5" y="890" as="sourcePoint" />
            <mxPoint x="374.5" y="770" as="targetPoint" />
          </mxGeometry>
        </mxCell>
        <mxCell id="urNjJAc5NS-x6S6wwpMr-79" value="" style="html=1;points=[[0,0,0,0,5],[0,1,0,0,-5],[1,0,0,0,5],[1,1,0,0,-5]];perimeter=orthogonalPerimeter;outlineConnect=0;targetShapes=umlLifeline;portConstraint=eastwest;newEdgeStyle={&quot;curved&quot;:0,&quot;rounded&quot;:0};" parent="1" vertex="1">
          <mxGeometry x="370" y="690" width="10" height="80" as="geometry" />
        </mxCell>
        <mxCell id="urNjJAc5NS-x6S6wwpMr-80" value="Inserir dados" style="html=1;verticalAlign=bottom;endArrow=block;curved=0;rounded=0;" parent="1" edge="1">
          <mxGeometry width="80" relative="1" as="geometry">
            <mxPoint x="205" y="690" as="sourcePoint" />
            <mxPoint x="370" y="690" as="targetPoint" />
          </mxGeometry>
        </mxCell>
        <mxCell id="urNjJAc5NS-x6S6wwpMr-81" value="Login" style="ellipse;shape=umlEntity;whiteSpace=wrap;html=1;" parent="1" vertex="1">
          <mxGeometry x="505" y="600" width="80" height="80" as="geometry" />
        </mxCell>
        <mxCell id="urNjJAc5NS-x6S6wwpMr-82" value="" style="endArrow=none;dashed=1;html=1;rounded=0;" parent="1" edge="1">
          <mxGeometry width="50" height="50" relative="1" as="geometry">
            <mxPoint x="544.5" y="890" as="sourcePoint" />
            <mxPoint x="544.5" y="770" as="targetPoint" />
          </mxGeometry>
        </mxCell>
        <mxCell id="urNjJAc5NS-x6S6wwpMr-83" value="" style="html=1;points=[[0,0,0,0,5],[0,1,0,0,-5],[1,0,0,0,5],[1,1,0,0,-5]];perimeter=orthogonalPerimeter;outlineConnect=0;targetShapes=umlLifeline;portConstraint=eastwest;newEdgeStyle={&quot;curved&quot;:0,&quot;rounded&quot;:0};" parent="1" vertex="1">
          <mxGeometry x="540" y="690" width="10" height="80" as="geometry" />
        </mxCell>
        <mxCell id="urNjJAc5NS-x6S6wwpMr-84" value="Dados informados" style="html=1;verticalAlign=bottom;endArrow=block;curved=0;rounded=0;" parent="1" edge="1">
          <mxGeometry width="80" relative="1" as="geometry">
            <mxPoint x="380" y="700" as="sourcePoint" />
            <mxPoint x="540" y="700" as="targetPoint" />
          </mxGeometry>
        </mxCell>
        <mxCell id="urNjJAc5NS-x6S6wwpMr-85" value="Dados errados" style="html=1;verticalAlign=bottom;endArrow=block;curved=0;rounded=0;" parent="1" source="urNjJAc5NS-x6S6wwpMr-79" edge="1">
          <mxGeometry width="80" relative="1" as="geometry">
            <mxPoint x="365" y="730" as="sourcePoint" />
            <mxPoint x="205" y="729.5" as="targetPoint" />
          </mxGeometry>
        </mxCell>
        <mxCell id="urNjJAc5NS-x6S6wwpMr-86" value=":banco de dados" style="html=1;whiteSpace=wrap;" parent="1" vertex="1">
          <mxGeometry x="690" y="630" width="110" height="50" as="geometry" />
        </mxCell>
        <mxCell id="urNjJAc5NS-x6S6wwpMr-87" value="" style="endArrow=none;dashed=1;html=1;rounded=0;" parent="1" edge="1">
          <mxGeometry width="50" height="50" relative="1" as="geometry">
            <mxPoint x="745" y="890" as="sourcePoint" />
            <mxPoint x="744.5" y="690" as="targetPoint" />
          </mxGeometry>
        </mxCell>
        <mxCell id="urNjJAc5NS-x6S6wwpMr-88" value="Validar dados" style="html=1;verticalAlign=bottom;endArrow=block;curved=0;rounded=0;" parent="1" edge="1">
          <mxGeometry width="80" relative="1" as="geometry">
            <mxPoint x="550" y="720" as="sourcePoint" />
            <mxPoint x="730" y="720" as="targetPoint" />
          </mxGeometry>
        </mxCell>
        <mxCell id="urNjJAc5NS-x6S6wwpMr-89" value="" style="line;strokeWidth=1;fillColor=none;align=left;verticalAlign=middle;spacingTop=-1;spacingLeft=3;spacingRight=3;rotatable=0;labelPosition=right;points=[];portConstraint=eastwest;strokeColor=inherit;" parent="1" vertex="1">
          <mxGeometry x="728" y="716" width="32" height="8" as="geometry" />
        </mxCell>
        <mxCell id="urNjJAc5NS-x6S6wwpMr-90" value="" style="endArrow=none;html=1;rounded=0;" parent="1" edge="1">
          <mxGeometry width="50" height="50" relative="1" as="geometry">
            <mxPoint x="730" y="750" as="sourcePoint" />
            <mxPoint x="760" y="750" as="targetPoint" />
          </mxGeometry>
        </mxCell>
        <mxCell id="urNjJAc5NS-x6S6wwpMr-91" value="" style="endArrow=none;html=1;rounded=0;" parent="1" edge="1">
          <mxGeometry width="50" height="50" relative="1" as="geometry">
            <mxPoint x="760" y="750" as="sourcePoint" />
            <mxPoint x="760" y="720" as="targetPoint" />
          </mxGeometry>
        </mxCell>
        <mxCell id="urNjJAc5NS-x6S6wwpMr-92" value="verdadeiro: int liberar acesso" style="html=1;verticalAlign=bottom;endArrow=open;dashed=1;endSize=8;curved=0;rounded=0;" parent="1" edge="1">
          <mxGeometry relative="1" as="geometry">
            <mxPoint x="730" y="750" as="sourcePoint" />
            <mxPoint x="550" y="750" as="targetPoint" />
          </mxGeometry>
        </mxCell>
        <mxCell id="urNjJAc5NS-x6S6wwpMr-94" value="Login" style="text;html=1;align=center;verticalAlign=middle;whiteSpace=wrap;rounded=0;" parent="1" vertex="1">
          <mxGeometry x="435" y="130" width="60" height="30" as="geometry" />
        </mxCell>
      </root>
    </mxGraphModel>
  </diagram>
</mxfile>
